REM DIRINDEX 1\2,1\3,1\4,1\6,1\5\7,1\5\8
REM DIRNAME folder01,folder02,folder03,folder04,folder05,folder06,folder07,folder08
TITLE ""
FILE "DB4500_5th_2A_37.mp3" MP3
  TRACK 01 AUDIO
    TITLE "0:"
    INDEX 01 00:00:00
  TRACK 02 AUDIO
    TITLE "2:cjc114_1187"
    INDEX 01 00:00:05
  TRACK 03 AUDIO
    TITLE "0:"
    INDEX 01 00:01:13
  TRACK 04 AUDIO
    TITLE "3:cjc114_1188"
    INDEX 01 00:01:36
  TRACK 05 AUDIO
    TITLE "0:"
    INDEX 01 00:02:73
  TRACK 06 AUDIO
    TITLE "4:cjc114_1189"
    INDEX 01 00:03:21
  TRACK 07 AUDIO
    TITLE "0:"
    INDEX 01 00:06:12
  TRACK 08 AUDIO
    TITLE "2:cjc114_1190"
    INDEX 01 00:06:61
  TRACK 09 AUDIO
    TITLE "0:"
    INDEX 01 00:08:07
  TRACK 10 AUDIO
    TITLE "3:cjc114_1191"
    INDEX 01 00:08:32
  TRACK 11 AUDIO
    TITLE "0:"
    INDEX 01 00:09:44
  TRACK 12 AUDIO
    TITLE "4:cjc114_1192"
    INDEX 01 00:09:69
  TRACK 13 AUDIO
    TITLE "0:"
    INDEX 01 00:13:61
  TRACK 14 AUDIO
    TITLE "2:cjc114_1193"
    INDEX 01 00:14:35
  TRACK 15 AUDIO
    TITLE "0:"
    INDEX 01 00:15:68
  TRACK 16 AUDIO
    TITLE "3:cjc114_1194"
    INDEX 01 00:16:16
  TRACK 17 AUDIO
    TITLE "0:"
    INDEX 01 00:17:31
  TRACK 18 AUDIO
    TITLE "4:cjc114_1195"
    INDEX 01 00:17:53
  TRACK 19 AUDIO
    TITLE "0:"
    INDEX 01 00:21:45
  TRACK 20 AUDIO
    TITLE "2:cjc114_1196"
    INDEX 01 00:22:19
  TRACK 21 AUDIO
    TITLE "0:"
    INDEX 01 00:23:34
  TRACK 22 AUDIO
    TITLE "3:cjc114_1197"
    INDEX 01 00:23:59
  TRACK 23 AUDIO
    TITLE "0:"
    INDEX 01 00:24:69
  TRACK 24 AUDIO
    TITLE "4:cjc114_1198"
    INDEX 01 00:25:19
  TRACK 25 AUDIO
    TITLE "0:"
    INDEX 01 00:29:27
  TRACK 26 AUDIO
    TITLE "2:cjc114_1199"
    INDEX 01 00:30:03
  TRACK 27 AUDIO
    TITLE "0:"
    INDEX 01 00:31:08
  TRACK 28 AUDIO
    TITLE "3:cjc114_1200"
    INDEX 01 00:31:33
  TRACK 29 AUDIO
    TITLE "0:"
    INDEX 01 00:32:60
  TRACK 30 AUDIO
    TITLE "4:cjc114_1201"
    INDEX 01 00:33:11
  TRACK 31 AUDIO
    TITLE "0:"
    INDEX 01 00:37:18
  TRACK 32 AUDIO
    TITLE "2:cjc114_1202"
    INDEX 01 00:37:69
  TRACK 33 AUDIO
    TITLE "0:"
    INDEX 01 00:39:03
  TRACK 34 AUDIO
    TITLE "3:cjc114_1203"
    INDEX 01 00:39:23
  TRACK 35 AUDIO
    TITLE "0:"
    INDEX 01 00:40:68
  TRACK 36 AUDIO
    TITLE "4:cjc114_1204"
    INDEX 01 00:41:18
  TRACK 37 AUDIO
    TITLE "0:"
    INDEX 01 00:44:01
  TRACK 38 AUDIO
    TITLE "2:cjc114_1205"
    INDEX 01 00:44:48
  TRACK 39 AUDIO
    TITLE "0:"
    INDEX 01 00:45:59
  TRACK 40 AUDIO
    TITLE "3:cjc114_1206"
    INDEX 01 00:46:11
  TRACK 41 AUDIO
    TITLE "0:"
    INDEX 01 00:47:34
  TRACK 42 AUDIO
    TITLE "4:cjc114_1207"
    INDEX 01 00:47:64
  TRACK 43 AUDIO
    TITLE "0:"
    INDEX 01 00:51:15
  TRACK 44 AUDIO
    TITLE "2:cjc114_1208"
    INDEX 01 00:51:67
  TRACK 45 AUDIO
    TITLE "0:"
    INDEX 01 00:53:17
  TRACK 46 AUDIO
    TITLE "3:cjc114_1209"
    INDEX 01 00:53:47
  TRACK 47 AUDIO
    TITLE "0:"
    INDEX 01 00:54:62
  TRACK 48 AUDIO
    TITLE "4:cjc114_1210"
    INDEX 01 00:55:16
  TRACK 49 AUDIO
    TITLE "0:"
    INDEX 01 00:58:48
  TRACK 50 AUDIO
    TITLE "4:cjc114_1211"
    INDEX 01 00:59:24
  TRACK 51 AUDIO
    TITLE "0:"
    INDEX 01 01:03:18
  TRACK 52 AUDIO
    TITLE "2:cjc114_1212"
    INDEX 01 01:03:71
  TRACK 53 AUDIO
    TITLE "0:"
    INDEX 01 01:05:15
  TRACK 54 AUDIO
    TITLE "3:cjc114_1213"
    INDEX 01 01:05:42
  TRACK 55 AUDIO
    TITLE "0:"
    INDEX 01 01:07:10
  TRACK 56 AUDIO
    TITLE "4:cjc114_1214"
    INDEX 01 01:07:37
  TRACK 57 AUDIO
    TITLE "0:"
    INDEX 01 01:10:22
  TRACK 58 AUDIO
    TITLE "2:cjc114_1215"
    INDEX 01 01:11:00
  TRACK 59 AUDIO
    TITLE "0:"
    INDEX 01 01:12:13
  TRACK 60 AUDIO
    TITLE "3:cjc114_1216"
    INDEX 01 01:12:40
  TRACK 61 AUDIO
    TITLE "0:"
    INDEX 01 01:14:04
  TRACK 62 AUDIO
    TITLE "4:cjc114_1217"
    INDEX 01 01:14:29
  TRACK 63 AUDIO
    TITLE "0:"
    INDEX 01 01:18:66
  TRACK 64 AUDIO
    TITLE "2:cjc114_1218"
    INDEX 01 01:19:46
  TRACK 65 AUDIO
    TITLE "0:"
    INDEX 01 01:20:63
  TRACK 66 AUDIO
    TITLE "3:cjc114_1219"
    INDEX 01 01:21:16
  TRACK 67 AUDIO
    TITLE "0:"
    INDEX 01 01:22:58
  TRACK 68 AUDIO
    TITLE "4:cjc114_1220"
    INDEX 01 01:23:11
  TRACK 69 AUDIO
    TITLE "0:"
    INDEX 01 01:27:22
  TRACK 70 AUDIO
    TITLE "2:cjc114_1221"
    INDEX 01 01:28:00
  TRACK 71 AUDIO
    TITLE "0:"
    INDEX 01 01:29:21
  TRACK 72 AUDIO
    TITLE "3:cjc114_1222"
    INDEX 01 01:29:50
  TRACK 73 AUDIO
    TITLE "0:"
    INDEX 01 01:31:00
  TRACK 74 AUDIO
    TITLE "4:cjc114_1223"
    INDEX 01 01:31:28
  TRACK 75 AUDIO
    TITLE "0:"
    INDEX 01 01:34:20
  TRACK 76 AUDIO
    TITLE "2:cjc114_1224"
    INDEX 01 01:35:00
  TRACK 77 AUDIO
    TITLE "0:"
    INDEX 01 01:36:00
  TRACK 78 AUDIO
    TITLE "3:cjc114_1225"
    INDEX 01 01:36:29
  TRACK 79 AUDIO
    TITLE "0:"
    INDEX 01 01:37:48
  TRACK 80 AUDIO
    TITLE "4:cjc114_1226"
    INDEX 01 01:38:02
  TRACK 81 AUDIO
    TITLE "0:"
    INDEX 01 01:41:20
